<mxfile host="app.diagrams.net" modified="2020-11-08T12:20:41.750Z" agent="5.0 (Windows NT 10.0; WOW64) AppleWebKit/537.36 (KHTML, like Gecko) Chrome/78.0.3904.108 Safari/537.36" etag="SNEqdz3t-nHvVb6IXkIn" version="13.9.2" type="github">
  <diagram id="zx0TbHJPjLbb0T7vwwuS" name="Page-1">
    <mxGraphModel dx="1422" dy="747" grid="1" gridSize="10" guides="1" tooltips="1" connect="1" arrows="1" fold="1" page="1" pageScale="1" pageWidth="827" pageHeight="1169" math="0" shadow="0">
      <root>
        <mxCell id="0" />
        <mxCell id="1" parent="0" />
      </root>
    </mxGraphModel>
  </diagram>
</mxfile>
